<svg width="23" height="23" viewBox="0 0 23 23" fill="none" xmlns="http://www.w3.org/2000/svg">
<g clip-path="url(#clip0_8337_872)">
<path d="M14.2695 5.99984H18.8529V7.83317H17.0195V19.7498C17.0195 20.0065 16.9309 20.2234 16.7537 20.4007C16.5765 20.5779 16.3595 20.6665 16.1029 20.6665H3.26953C3.01286 20.6665 2.79592 20.5779 2.6187 20.4007C2.44148 20.2234 2.35286 20.0065 2.35286 19.7498V7.83317H0.519531V5.99984H5.10286V3.24984C5.10286 2.99317 5.19148 2.77623 5.3687 2.599C5.54592 2.42178 5.76286 2.33317 6.01953 2.33317H13.3529C13.6095 2.33317 13.8265 2.42178 14.0037 2.599C14.1809 2.77623 14.2695 2.99317 14.2695 3.24984V5.99984ZM15.1862 7.83317H4.1862V18.8332H15.1862V7.83317ZM6.9362 10.5832H8.76953V16.0832H6.9362V10.5832ZM10.6029 10.5832H12.4362V16.0832H10.6029V10.5832ZM6.9362 4.1665V5.99984H12.4362V4.1665H6.9362Z" fill="#555555"/>
</g>
<defs>
<clipPath id="clip0_8337_872">
<rect width="22.48" height="22" fill="white" transform="matrix(1 0 0 -1 0.519531 22.5)"/>
</clipPath>
</defs>
</svg>
