<svg width="21" height="21" viewBox="0 0 21 21" fill="none" xmlns="http://www.w3.org/2000/svg">
<path d="M16.7936 11.9777C17.3434 10.8385 17.3277 9.70727 16.816 8.51221L17.8617 7.43685L17.1448 6.73968L16.1688 7.74335L15.882 7.46448C15.0934 6.69759 14.1693 6.3569 13.0381 6.37269L12.4724 6.38058L11.8174 5.04609C11.672 4.76525 11.5267 4.4844 11.2399 4.20554C10.8097 3.78723 10.2402 3.51231 9.60285 3.45049C8.89384 3.31895 8.33018 3.46825 7.83822 3.68727C7.20681 4.04966 6.78851 4.47981 6.44387 5.12108C6.17092 5.83206 6.03741 6.39966 6.18671 6.96332C4.85419 7.75981 4.16294 8.90094 4.18465 10.4564C4.20044 11.5877 4.56678 12.5019 5.35538 13.2688C5.71383 13.6174 5.9289 13.8265 6.21369 13.964C6.0861 14.9558 6.31103 15.872 7.02794 16.5692C7.24301 16.7783 7.52977 17.0572 7.81456 17.1947C8.38414 17.4696 8.94977 17.4617 9.58511 17.3821C10.2902 17.2308 10.7821 17.0118 11.2004 16.5817C11.4793 16.2949 11.6885 16.0798 11.8259 15.795L12.5829 14.2994L13.292 14.4309C14.4232 14.4152 15.4769 13.9054 16.2418 12.9754L17.1738 13.8818L17.9407 13.0932L16.7936 11.9777ZM8.23613 6.864C8.01514 6.23063 8.15063 5.80443 8.71231 5.51372C9.274 5.22302 9.70019 5.3585 9.9909 5.92019L11.4484 9.01142C9.74361 8.46947 8.74389 7.77625 8.23613 6.864ZM8.84848 15.2708C8.2789 14.9959 8.13157 14.5737 8.3348 13.9344C8.8169 13.0083 9.79689 12.2875 11.4859 11.6982L10.1849 14.7572C9.8403 15.3984 9.41805 15.5458 8.84848 15.2708ZM13.4038 12.3079L14.0891 10.7425L14.1588 10.6708L14.1529 10.2466L14.0812 10.1769L13.3525 8.63126C13.8484 8.69506 14.2746 8.83055 14.633 9.17913C14.9915 9.52772 15.2105 10.0197 15.2184 10.5853C15.2263 11.1509 15.0908 11.5771 14.7422 11.9356C14.3897 12.0112 13.8977 12.2302 13.4038 12.3079Z" fill="black"/>
</svg>
