<svg width="29" height="29" viewBox="0 0 29 29" fill="none" xmlns="http://www.w3.org/2000/svg">
<path d="M14.3889 11.0882H17.1667V7.08818H21.3333V4.42151H17.1667V0.421509H14.3889V4.42151H10.2222V7.08818H14.3889V11.0882ZM8.83333 23.0882C7.30556 23.0882 6.06945 24.2882 6.06945 25.7548C6.06945 27.2215 7.30556 28.4215 8.83333 28.4215C10.3611 28.4215 11.6111 27.2215 11.6111 25.7548C11.6111 24.2882 10.3611 23.0882 8.83333 23.0882ZM22.7222 23.0882C21.1944 23.0882 19.9583 24.2882 19.9583 25.7548C19.9583 27.2215 21.1944 28.4215 22.7222 28.4215C24.25 28.4215 25.5 27.2215 25.5 25.7548C25.5 24.2882 24.25 23.0882 22.7222 23.0882ZM10.3611 16.4215H20.7083C21.75 16.4215 22.6667 15.8748 23.1389 15.0482L28.5 5.70151L26.0833 4.42151L20.7083 13.7548H10.9583L5.04167 1.75484H0.5V4.42151H3.27778L8.27778 14.5415L6.40278 17.7948C5.38889 19.5815 6.72222 21.7548 8.83333 21.7548H25.5V19.0882H8.83333L10.3611 16.4215Z" fill="black" fill-opacity="0.8"/>
</svg>
