<svg width="33" height="32" viewBox="0 0 33 32" fill="none" xmlns="http://www.w3.org/2000/svg">
<path d="M16.0712 2C8.27117 2 2.07117 8.2 2.07117 16C2.07117 23.8 8.27117 30 16.0712 30C23.8712 30 30.0712 23.8 30.0712 16C30.0712 8.2 23.8712 2 16.0712 2ZM16.0712 28C9.47117 28 4.07117 22.6 4.07117 16C4.07117 9.4 9.47117 4 16.0712 4C22.6712 4 28.0712 9.4 28.0712 16C28.0712 22.6 22.6712 28 16.0712 28Z" fill="#654501"/>
<path d="M21.4712 23L16.0712 17.6L10.6712 23L9.07117 21.4L14.4712 16L9.07117 10.6L10.6712 9L16.0712 14.4L21.4712 9L23.0712 10.6L17.6712 16L23.0712 21.4L21.4712 23Z" fill="#654501"/>
</svg>
