<svg width="24" height="24" viewBox="0 0 24 24" fill="none" xmlns="http://www.w3.org/2000/svg">
<path d="M22.221 15.7681L21.997 14.6431H19.483L19.083 15.7601L17.068 15.7641C18.363 12.6511 19.325 10.3461 19.952 8.84712C20.116 8.45512 20.407 8.25512 20.836 8.25812C21.164 8.26112 21.699 8.26112 22.442 8.25912L24 15.7651L22.221 15.7681ZM20.049 13.1021H21.669L21.064 10.2821L20.049 13.1021ZM7.06 8.25712L9.086 8.25912L5.954 15.7691L3.903 15.7671C3.38725 13.7834 2.87792 11.7981 2.375 9.81112C2.275 9.41512 2.077 9.13812 1.696 9.00712C1.13333 8.81853 0.56794 8.63817 0 8.46612L0 8.25912H3.237C3.797 8.25912 4.124 8.53012 4.229 9.08612C4.335 9.64312 4.601 11.0621 5.029 13.3401L7.06 8.25712ZM11.87 8.25912L10.269 15.7681L8.34 15.7651L9.94 8.25712L11.87 8.25912ZM15.78 8.12012C16.357 8.12012 17.084 8.30012 17.502 8.46612L17.164 10.0221C16.786 9.87012 16.164 9.66512 15.641 9.67212C14.881 9.68512 14.411 10.0041 14.411 10.3101C14.411 10.8081 15.227 11.0591 16.067 11.6031C17.025 12.2231 17.152 12.7801 17.14 13.3861C17.127 14.6411 16.067 15.8801 13.831 15.8801C12.811 15.8651 12.443 15.7801 11.611 15.4841L11.963 13.8601C12.81 14.2141 13.169 14.3271 13.893 14.3271C14.556 14.3271 15.125 14.0591 15.13 13.5921C15.134 13.2601 14.93 13.0951 14.186 12.6851C13.442 12.2741 12.398 11.7061 12.412 10.5631C12.429 9.10112 13.814 8.12012 15.78 8.12012Z" fill="#654501"/>
</svg>
