<svg width="55" height="54" viewBox="0 0 55 54" fill="none" xmlns="http://www.w3.org/2000/svg">
<path d="M1.07637 28C0.719108 27.3812 0.719108 26.6188 1.07637 26L13.4217 4.61731C13.7789 3.99851 14.4392 3.61731 15.1537 3.61731H39.8443C40.5589 3.61731 41.2191 3.99851 41.5764 4.61731L53.9217 26C54.2789 26.6188 54.2789 27.3812 53.9217 28L41.5764 49.3827C41.2191 50.0015 40.5589 50.3827 39.8443 50.3827H15.1537C14.4392 50.3827 13.7789 50.0015 13.4217 49.3827L1.07637 28Z" fill="#654501"/>
<path d="M33.3324 15.3333H29.8324C28.2853 15.3333 26.8015 15.9478 25.7076 17.0418C24.6136 18.1358 23.999 19.6195 23.999 21.1666V24.6666H20.499V29.3333H23.999V38.6666H28.6657V29.3333H32.1657L33.3324 24.6666H28.6657V21.1666C28.6657 20.8572 28.7886 20.5604 29.0074 20.3416C29.2262 20.1228 29.5229 19.9999 29.8324 19.9999H33.3324V15.3333Z" fill="#FFCD29"/>
</svg>
