<svg width="55" height="54" viewBox="0 0 55 54" fill="none" xmlns="http://www.w3.org/2000/svg">
<path d="M1.07637 28C0.719108 27.3812 0.719108 26.6188 1.07637 26L13.4217 4.61731C13.7789 3.99851 14.4392 3.61731 15.1537 3.61731H39.8443C40.5589 3.61731 41.2191 3.99851 41.5764 4.61731L53.9217 26C54.2789 26.6188 54.2789 27.3812 53.9217 28L41.5764 49.3827C41.2191 50.0015 40.5589 50.3827 39.8443 50.3827H15.1537C14.4392 50.3827 13.7789 50.0015 13.4217 49.3827L1.07637 28Z" fill="#654501"/>
<path d="M28.3558 18.6667C29.2933 18.6692 29.7691 18.6742 30.1799 18.6859L30.3416 18.6917C30.5283 18.6984 30.7124 18.7067 30.9349 18.7167C31.8216 18.7584 32.4266 18.8984 32.9574 19.1042C33.5074 19.3159 33.9708 19.6026 34.4341 20.0651C34.8578 20.4817 35.1857 20.9856 35.3949 21.5417C35.6008 22.0726 35.7408 22.6776 35.7824 23.5651C35.7924 23.7867 35.8008 23.9709 35.8074 24.1584L35.8124 24.3201C35.8249 24.7301 35.8299 25.2059 35.8316 26.1434L35.8324 26.7651V27.8567C35.8345 28.4646 35.8281 29.0724 35.8133 29.6801L35.8083 29.8417C35.8016 30.0292 35.7933 30.2134 35.7833 30.4351C35.7416 31.3226 35.5999 31.9267 35.3949 32.4584C35.1863 33.0149 34.8584 33.5189 34.4341 33.9351C34.0174 34.3587 33.5135 34.6865 32.9574 34.8959C32.4266 35.1017 31.8216 35.2417 30.9349 35.2834C30.7372 35.2927 30.5394 35.3011 30.3416 35.3084L30.1799 35.3134C29.7691 35.3251 29.2933 35.3309 28.3558 35.3326L27.7341 35.3334H26.6433C26.0351 35.3355 25.427 35.3291 24.8191 35.3142L24.6574 35.3092C24.4596 35.3018 24.2618 35.2931 24.0641 35.2834C23.1774 35.2417 22.5724 35.1017 22.0408 34.8959C21.4847 34.6871 20.9809 34.3591 20.5649 33.9351C20.1408 33.5187 19.8126 33.0147 19.6033 32.4584C19.3974 31.9276 19.2574 31.3226 19.2158 30.4351C19.2065 30.2373 19.1981 30.0396 19.1908 29.8417L19.1866 29.6801C19.1712 29.0724 19.1643 28.4646 19.1658 27.8567V26.1434C19.1634 25.5356 19.1695 24.9277 19.1841 24.3201L19.1899 24.1584C19.1966 23.9709 19.2049 23.7867 19.2149 23.5651C19.2566 22.6776 19.3966 22.0734 19.6024 21.5417C19.8117 20.985 20.1405 20.4809 20.5658 20.0651C20.9817 19.6413 21.4851 19.3134 22.0408 19.1042C22.5724 18.8984 23.1766 18.7584 24.0641 18.7167C24.2858 18.7067 24.4708 18.6984 24.6574 18.6917L24.8191 18.6867C25.4268 18.6719 26.0346 18.6656 26.6424 18.6676L28.3558 18.6667ZM27.4991 22.8334C26.394 22.8334 25.3342 23.2724 24.5528 24.0538C23.7714 24.8352 23.3324 25.895 23.3324 27.0001C23.3324 28.1052 23.7714 29.165 24.5528 29.9464C25.3342 30.7278 26.394 31.1667 27.4991 31.1667C28.6042 31.1667 29.664 30.7278 30.4454 29.9464C31.2268 29.165 31.6658 28.1052 31.6658 27.0001C31.6658 25.895 31.2268 24.8352 30.4454 24.0538C29.664 23.2724 28.6042 22.8334 27.4991 22.8334ZM27.4991 24.5001C27.8274 24.5 28.1525 24.5646 28.4558 24.6902C28.7592 24.8158 29.0348 24.9999 29.267 25.232C29.4992 25.4641 29.6834 25.7397 29.8091 26.043C29.9347 26.3463 29.9995 26.6714 29.9995 26.9997C29.9996 27.328 29.935 27.6531 29.8094 27.9564C29.6838 28.2597 29.4997 28.5354 29.2676 28.7676C29.0355 28.9997 28.7599 29.1839 28.4566 29.3096C28.1533 29.4353 27.8282 29.5 27.4999 29.5001C26.8369 29.5001 26.201 29.2367 25.7322 28.7678C25.2633 28.299 24.9999 27.6631 24.9999 27.0001C24.9999 26.337 25.2633 25.7012 25.7322 25.2323C26.201 24.7635 26.8369 24.5001 27.4999 24.5001M31.8749 21.5834C31.5987 21.5834 31.3337 21.6932 31.1384 21.8885C30.943 22.0839 30.8333 22.3488 30.8333 22.6251C30.8333 22.9013 30.943 23.1663 31.1384 23.3617C31.3337 23.557 31.5987 23.6667 31.8749 23.6667C32.1512 23.6667 32.4162 23.557 32.6115 23.3617C32.8069 23.1663 32.9166 22.9013 32.9166 22.6251C32.9166 22.3488 32.8069 22.0839 32.6115 21.8885C32.4162 21.6932 32.1512 21.5834 31.8749 21.5834Z" fill="#FFCD29"/>
</svg>
