<svg width="42" height="67" viewBox="0 0 42 67" fill="none" xmlns="http://www.w3.org/2000/svg">
<path d="M4.01174 11.5C3.8331 11.1906 3.8331 10.8094 4.01174 10.5L8.35703 2.97372C8.53567 2.66432 8.86579 2.47372 9.22306 2.47372H17.9137C18.2709 2.47372 18.6011 2.66432 18.7797 2.97372L23.125 10.5C23.3036 10.8094 23.3036 11.1906 23.125 11.5L18.7797 19.0263C18.6011 19.3357 18.2709 19.5263 17.9137 19.5263H9.22306C8.86579 19.5263 8.53567 19.3357 8.35703 19.0263L4.01174 11.5Z" stroke="#332300" stroke-width="2"/>
<path d="M4.01174 28.7385C3.8331 28.4291 3.8331 28.0479 4.01174 27.7385L8.35703 20.2122C8.53567 19.9028 8.86579 19.7122 9.22306 19.7122H17.9137C18.2709 19.7122 18.6011 19.9028 18.7797 20.2122L23.125 27.7385C23.3036 28.0479 23.3036 28.4291 23.125 28.7385L18.7797 36.2648C18.6011 36.5742 18.2709 36.7648 17.9137 36.7648H9.22306C8.86579 36.7648 8.53567 36.5742 8.35703 36.2648L4.01174 28.7385Z" stroke="#332300" stroke-width="2"/>
<path d="M18.875 20.1262C18.6964 19.8168 18.6964 19.4356 18.875 19.1262L23.2203 11.5999C23.3989 11.2905 23.7291 11.0999 24.0863 11.0999H32.7769C33.1342 11.0999 33.4643 11.2905 33.643 11.5999L37.9883 19.1262C38.1669 19.4356 38.1669 19.8168 37.9883 20.1262L33.643 27.6525C33.4643 27.9619 33.1342 28.1525 32.7769 28.1525H24.0863C23.7291 28.1525 23.3989 27.9619 23.2203 27.6525L18.875 20.1262Z" stroke="#332300" stroke-width="2"/>
<path d="M16.5361 26.1723C16.278 25.4064 15.7619 24.8957 14.9877 24.5766V23.6191H14.3426V24.5128H14.0845C13.3748 24.5128 12.7942 24.7681 12.278 25.2787L12.02 25.534L11.1167 25.2149C10.9232 25.1511 10.7296 25.0872 10.4716 25.0872C10.0845 25.0872 9.69739 25.2149 9.37481 25.4702C8.98771 25.7255 8.79417 26.0447 8.66513 26.3638C8.5361 26.8106 8.5361 27.1936 8.66513 27.6404C8.85868 28.0872 9.05223 28.4064 9.37481 28.5979C9.11675 29.5553 9.3103 30.3851 10.02 31.0872C10.5361 31.5979 11.1167 31.8532 11.8264 31.8532C12.149 31.8532 12.3426 31.8532 12.5361 31.7894C12.9232 32.3 13.4393 32.6191 14.0845 32.6191C14.278 32.6191 14.5361 32.6191 14.7296 32.5553C15.1167 32.4277 15.3748 32.1723 15.6329 31.8532C15.8909 31.4702 16.02 31.1511 16.02 30.7681C16.02 30.5128 16.02 30.3213 15.9555 30.1298L15.6329 29.1085L16.02 28.8532C16.5361 28.3425 16.7942 27.6404 16.7296 26.8745H17.5684V26.1723H16.5361ZM10.278 27.6404C9.89094 27.4489 9.76191 27.1936 9.89094 26.8106C10.02 26.4277 10.278 26.3 10.6651 26.4277L12.7296 27.1936C11.6974 27.7042 10.9232 27.8319 10.278 27.6404ZM14.3426 31.2149C13.9555 31.3425 13.6974 31.2149 13.5038 30.8319C13.3103 30.1936 13.4393 29.4277 13.9555 28.4064L14.7296 30.3851C14.8587 30.8319 14.7296 31.0872 14.3426 31.2149ZM15.1167 27.8319L14.7296 26.8106V26.7468L14.5361 26.5553H14.4716L13.4393 26.1723C13.6974 25.9808 13.9555 25.8532 14.278 25.8532C14.6006 25.8532 14.9232 25.9808 15.1813 26.2362C15.4393 26.4915 15.5684 26.7468 15.5684 27.0659C15.4393 27.2574 15.3103 27.5766 15.1167 27.8319Z" fill="#332300"/>
<path d="M8.48592 41.7425V41.9825C8.22992 42.0145 8.03792 42.0825 7.90992 42.1865C7.78192 42.2825 7.69392 42.4385 7.64592 42.6545C7.60592 42.8705 7.58592 43.1745 7.58592 43.5665V50.2625C7.48992 50.2545 7.38992 50.2505 7.28592 50.2505C7.18992 50.2505 7.08592 50.2545 6.97392 50.2625L1.76592 43.6625V48.2705C1.76592 48.7105 1.78992 49.0505 1.83792 49.2905C1.88592 49.5225 1.98992 49.6905 2.14992 49.7945C2.31792 49.8905 2.57792 49.9585 2.92992 49.9985V50.2385C2.77792 50.2225 2.57792 50.2145 2.32992 50.2145C2.08192 50.2065 1.84992 50.2025 1.63392 50.2025C1.44992 50.2025 1.26192 50.2065 1.06992 50.2145C0.877922 50.2145 0.717922 50.2225 0.589922 50.2385V49.9985C0.845922 49.9585 1.03792 49.8905 1.16592 49.7945C1.29392 49.6985 1.37792 49.5425 1.41792 49.3265C1.46592 49.1025 1.48992 48.7985 1.48992 48.4145V43.0145C1.48992 42.7185 1.46592 42.5025 1.41792 42.3665C1.37792 42.2225 1.28992 42.1265 1.15392 42.0785C1.02592 42.0225 0.837922 41.9905 0.589922 41.9825V41.7425C0.717922 41.7505 0.877922 41.7585 1.06992 41.7665C1.26192 41.7745 1.44992 41.7785 1.63392 41.7785C1.82592 41.7785 2.00992 41.7745 2.18592 41.7665C2.36192 41.7585 2.52192 41.7505 2.66592 41.7425L7.30992 47.4665V43.7105C7.30992 43.2705 7.28592 42.9345 7.23792 42.7025C7.18992 42.4625 7.08192 42.2905 6.91392 42.1865C6.75392 42.0825 6.49792 42.0145 6.14592 41.9825V41.7425C6.29792 41.7505 6.49792 41.7585 6.74592 41.7665C6.99392 41.7745 7.22592 41.7785 7.44192 41.7785C7.63392 41.7785 7.82192 41.7745 8.00592 41.7665C8.19792 41.7585 8.35792 41.7505 8.48592 41.7425ZM10.528 50.3225C10.168 50.3225 9.86798 50.2545 9.62798 50.1185C9.38798 49.9825 9.21198 49.8025 9.09998 49.5785C8.98798 49.3465 8.93198 49.0945 8.93198 48.8225C8.93198 48.4785 9.00798 48.1985 9.15998 47.9825C9.31998 47.7665 9.52398 47.5905 9.77198 47.4545C10.02 47.3185 10.28 47.2065 10.552 47.1185C10.832 47.0305 11.096 46.9465 11.344 46.8665C11.6 46.7785 11.804 46.6785 11.956 46.5665C12.116 46.4465 12.196 46.2945 12.196 46.1105V45.1745C12.196 44.9665 12.16 44.7825 12.088 44.6225C12.024 44.4545 11.92 44.3265 11.776 44.2385C11.64 44.1505 11.46 44.1065 11.236 44.1065C11.076 44.1065 10.916 44.1305 10.756 44.1785C10.596 44.2185 10.464 44.2905 10.36 44.3945C10.584 44.4745 10.756 44.5985 10.876 44.7665C11.004 44.9265 11.068 45.1105 11.068 45.3185C11.068 45.5905 10.972 45.8065 10.78 45.9665C10.596 46.1265 10.376 46.2065 10.12 46.2065C9.83198 46.2065 9.61198 46.1185 9.45998 45.9425C9.31598 45.7585 9.24398 45.5385 9.24398 45.2825C9.24398 45.0505 9.29998 44.8585 9.41198 44.7065C9.53198 44.5545 9.69598 44.4105 9.90398 44.2745C10.128 44.1465 10.396 44.0465 10.708 43.9745C11.028 43.9025 11.372 43.8665 11.74 43.8665C12.108 43.8665 12.44 43.9065 12.736 43.9865C13.032 44.0585 13.28 44.1945 13.48 44.3945C13.664 44.5785 13.784 44.8065 13.84 45.0785C13.896 45.3425 13.924 45.6785 13.924 46.0865V49.3505C13.924 49.5505 13.944 49.6905 13.984 49.7705C14.024 49.8425 14.092 49.8785 14.188 49.8785C14.26 49.8785 14.328 49.8585 14.392 49.8185C14.464 49.7785 14.54 49.7305 14.62 49.6745L14.74 49.8785C14.572 50.0225 14.376 50.1345 14.152 50.2145C13.936 50.2865 13.692 50.3225 13.42 50.3225C13.124 50.3225 12.888 50.2825 12.712 50.2025C12.536 50.1145 12.408 49.9985 12.328 49.8545C12.256 49.7105 12.22 49.5425 12.22 49.3505C12.028 49.6545 11.796 49.8945 11.524 50.0705C11.252 50.2385 10.92 50.3225 10.528 50.3225ZM11.38 49.5545C11.54 49.5545 11.684 49.5185 11.812 49.4465C11.948 49.3665 12.076 49.2385 12.196 49.0625V46.6025C12.124 46.7225 12.024 46.8305 11.896 46.9265C11.768 47.0225 11.632 47.1225 11.488 47.2265C11.344 47.3225 11.204 47.4305 11.068 47.5505C10.94 47.6705 10.836 47.8185 10.756 47.9945C10.676 48.1705 10.636 48.3825 10.636 48.6305C10.636 48.9425 10.704 49.1745 10.84 49.3265C10.976 49.4785 11.156 49.5545 11.38 49.5545ZM17.5189 42.0665V44.0345H18.9349V44.2745H17.5189V49.1225C17.5189 49.3625 17.5629 49.5345 17.6509 49.6385C17.7389 49.7345 17.8709 49.7825 18.0469 49.7825C18.1909 49.7825 18.3349 49.7305 18.4789 49.6265C18.6229 49.5145 18.7509 49.3265 18.8629 49.0625L19.0669 49.1705C18.9389 49.5305 18.7429 49.8265 18.4789 50.0585C18.2229 50.2905 17.8709 50.4065 17.4229 50.4065C17.1589 50.4065 16.9269 50.3705 16.7269 50.2985C16.5269 50.2345 16.3589 50.1345 16.2229 49.9985C16.0469 49.8225 15.9309 49.6065 15.8749 49.3505C15.8189 49.0865 15.7909 48.7465 15.7909 48.3305V44.2745H14.7829V44.0345H15.7909V42.4505C16.1269 42.4505 16.4349 42.4225 16.7149 42.3665C17.0029 42.3025 17.2709 42.2025 17.5189 42.0665ZM25.2777 43.9025V48.9305C25.2777 49.2905 25.3337 49.5585 25.4457 49.7345C25.5577 49.9025 25.7577 49.9865 26.0457 49.9865V50.2385C25.7977 50.2145 25.5497 50.2025 25.3017 50.2025C24.9657 50.2025 24.6537 50.2145 24.3657 50.2385C24.0777 50.2625 23.8057 50.3065 23.5497 50.3705V49.2905C23.3577 49.6905 23.0897 49.9785 22.7457 50.1545C22.4097 50.3225 22.0337 50.4065 21.6177 50.4065C21.2817 50.4065 21.0097 50.3625 20.8017 50.2745C20.5937 50.1865 20.4297 50.0745 20.3097 49.9385C20.1737 49.7865 20.0777 49.5865 20.0217 49.3385C19.9657 49.0905 19.9377 48.7705 19.9377 48.3785V45.3425C19.9377 44.9825 19.8817 44.7185 19.7697 44.5505C19.6657 44.3745 19.4657 44.2865 19.1697 44.2865V44.0345C19.4257 44.0585 19.6737 44.0705 19.9137 44.0705C20.2497 44.0705 20.5617 44.0585 20.8497 44.0345C21.1457 44.0025 21.4177 43.9585 21.6657 43.9025V48.8705C21.6657 49.0705 21.6817 49.2465 21.7137 49.3985C21.7537 49.5505 21.8257 49.6705 21.9297 49.7585C22.0337 49.8385 22.1857 49.8785 22.3857 49.8785C22.6017 49.8785 22.7937 49.8185 22.9617 49.6985C23.1377 49.5785 23.2777 49.4145 23.3817 49.2065C23.4937 48.9905 23.5497 48.7505 23.5497 48.4865V45.3425C23.5497 44.9825 23.4937 44.7185 23.3817 44.5505C23.2777 44.3745 23.0777 44.2865 22.7817 44.2865V44.0345C23.0377 44.0585 23.2857 44.0705 23.5257 44.0705C23.8617 44.0705 24.1737 44.0585 24.4617 44.0345C24.7577 44.0025 25.0297 43.9585 25.2777 43.9025ZM30.707 43.8665C30.963 43.8665 31.171 43.9225 31.331 44.0345C31.491 44.1385 31.607 44.2745 31.679 44.4425C31.759 44.6105 31.799 44.7865 31.799 44.9705C31.799 45.2665 31.711 45.5105 31.535 45.7025C31.367 45.8865 31.143 45.9785 30.863 45.9785C30.583 45.9785 30.363 45.9105 30.203 45.7745C30.051 45.6305 29.975 45.4425 29.975 45.2105C29.975 44.9865 30.023 44.8025 30.119 44.6585C30.223 44.5065 30.351 44.3785 30.503 44.2745C30.391 44.2425 30.279 44.2465 30.167 44.2865C30.015 44.3105 29.871 44.3745 29.735 44.4785C29.599 44.5745 29.483 44.6985 29.387 44.8505C29.291 44.9945 29.215 45.1545 29.159 45.3305C29.103 45.4985 29.075 45.6625 29.075 45.8225V49.0025C29.075 49.3865 29.167 49.6465 29.351 49.7825C29.543 49.9185 29.827 49.9865 30.203 49.9865V50.2385C30.019 50.2305 29.751 50.2225 29.399 50.2145C29.047 50.1985 28.679 50.1905 28.295 50.1905C27.975 50.1905 27.651 50.1985 27.323 50.2145C26.995 50.2225 26.747 50.2305 26.579 50.2385V49.9865C26.859 49.9865 27.055 49.9265 27.167 49.8065C27.287 49.6865 27.347 49.4585 27.347 49.1225V45.3425C27.347 44.9825 27.291 44.7185 27.179 44.5505C27.075 44.3745 26.875 44.2865 26.579 44.2865V44.0345C26.835 44.0585 27.083 44.0705 27.323 44.0705C27.659 44.0705 27.971 44.0585 28.259 44.0345C28.555 44.0025 28.827 43.9585 29.075 43.9025V45.0185C29.171 44.8025 29.299 44.6065 29.459 44.4305C29.619 44.2545 29.803 44.1185 30.011 44.0225C30.219 43.9185 30.451 43.8665 30.707 43.8665ZM33.8366 50.3225C33.4766 50.3225 33.1766 50.2545 32.9366 50.1185C32.6966 49.9825 32.5206 49.8025 32.4086 49.5785C32.2966 49.3465 32.2406 49.0945 32.2406 48.8225C32.2406 48.4785 32.3166 48.1985 32.4686 47.9825C32.6286 47.7665 32.8326 47.5905 33.0806 47.4545C33.3286 47.3185 33.5886 47.2065 33.8606 47.1185C34.1406 47.0305 34.4046 46.9465 34.6526 46.8665C34.9086 46.7785 35.1126 46.6785 35.2646 46.5665C35.4246 46.4465 35.5046 46.2945 35.5046 46.1105V45.1745C35.5046 44.9665 35.4686 44.7825 35.3966 44.6225C35.3326 44.4545 35.2286 44.3265 35.0846 44.2385C34.9486 44.1505 34.7686 44.1065 34.5446 44.1065C34.3846 44.1065 34.2246 44.1305 34.0646 44.1785C33.9046 44.2185 33.7726 44.2905 33.6686 44.3945C33.8926 44.4745 34.0646 44.5985 34.1846 44.7665C34.3126 44.9265 34.3766 45.1105 34.3766 45.3185C34.3766 45.5905 34.2806 45.8065 34.0886 45.9665C33.9046 46.1265 33.6846 46.2065 33.4286 46.2065C33.1406 46.2065 32.9206 46.1185 32.7686 45.9425C32.6246 45.7585 32.5526 45.5385 32.5526 45.2825C32.5526 45.0505 32.6086 44.8585 32.7206 44.7065C32.8406 44.5545 33.0046 44.4105 33.2126 44.2745C33.4366 44.1465 33.7046 44.0465 34.0166 43.9745C34.3366 43.9025 34.6806 43.8665 35.0486 43.8665C35.4166 43.8665 35.7486 43.9065 36.0446 43.9865C36.3406 44.0585 36.5886 44.1945 36.7886 44.3945C36.9726 44.5785 37.0926 44.8065 37.1486 45.0785C37.2046 45.3425 37.2326 45.6785 37.2326 46.0865V49.3505C37.2326 49.5505 37.2526 49.6905 37.2926 49.7705C37.3326 49.8425 37.4006 49.8785 37.4966 49.8785C37.5686 49.8785 37.6366 49.8585 37.7006 49.8185C37.7726 49.7785 37.8486 49.7305 37.9286 49.6745L38.0486 49.8785C37.8806 50.0225 37.6846 50.1345 37.4606 50.2145C37.2446 50.2865 37.0006 50.3225 36.7286 50.3225C36.4326 50.3225 36.1966 50.2825 36.0206 50.2025C35.8446 50.1145 35.7166 49.9985 35.6366 49.8545C35.5646 49.7105 35.5286 49.5425 35.5286 49.3505C35.3366 49.6545 35.1046 49.8945 34.8326 50.0705C34.5606 50.2385 34.2286 50.3225 33.8366 50.3225ZM34.6886 49.5545C34.8486 49.5545 34.9926 49.5185 35.1206 49.4465C35.2566 49.3665 35.3846 49.2385 35.5046 49.0625V46.6025C35.4326 46.7225 35.3326 46.8305 35.2046 46.9265C35.0766 47.0225 34.9406 47.1225 34.7966 47.2265C34.6526 47.3225 34.5126 47.4305 34.3766 47.5505C34.2486 47.6705 34.1446 47.8185 34.0646 47.9945C33.9846 48.1705 33.9446 48.3825 33.9446 48.6305C33.9446 48.9425 34.0126 49.1745 34.1486 49.3265C34.2846 49.4785 34.4646 49.5545 34.6886 49.5545ZM40.8395 40.8425V49.1225C40.8395 49.4585 40.8955 49.6865 41.0075 49.8065C41.1275 49.9265 41.3275 49.9865 41.6075 49.9865V50.2385C41.4555 50.2305 41.2275 50.2225 40.9235 50.2145C40.6195 50.1985 40.3115 50.1905 39.9995 50.1905C39.6875 50.1905 39.3715 50.1985 39.0515 50.2145C38.7395 50.2225 38.5035 50.2305 38.3435 50.2385V49.9865C38.6235 49.9865 38.8195 49.9265 38.9315 49.8065C39.0515 49.6865 39.1115 49.4585 39.1115 49.1225V42.2825C39.1115 41.9225 39.0555 41.6585 38.9435 41.4905C38.8395 41.3145 38.6395 41.2265 38.3435 41.2265V40.9745C38.5995 40.9985 38.8475 41.0105 39.0875 41.0105C39.4155 41.0105 39.7275 40.9985 40.0235 40.9745C40.3195 40.9425 40.5915 40.8985 40.8395 40.8425ZM8.79792 62.2385V61.9985C9.05392 61.9825 9.24592 61.9505 9.37392 61.9025C9.50192 61.8545 9.58592 61.7585 9.62592 61.6145C9.67392 61.4705 9.69792 61.2545 9.69792 60.9665V55.0145C9.69792 54.7185 9.67392 54.5025 9.62592 54.3665C9.58592 54.2225 9.49792 54.1265 9.36192 54.0785C9.23392 54.0225 9.04592 53.9905 8.79792 53.9825V53.7425C9.01392 53.7505 9.29392 53.7585 9.63792 53.7665C9.98992 53.7745 10.3379 53.7785 10.6819 53.7785C11.0499 53.7785 11.3939 53.7745 11.7139 53.7665C12.0419 53.7585 12.3059 53.7505 12.5059 53.7425V53.9825C12.2499 53.9905 12.0539 54.0225 11.9179 54.0785C11.7899 54.1265 11.7059 54.2225 11.6659 54.3665C11.6259 54.5025 11.6059 54.7185 11.6059 55.0145V60.9665C11.6059 61.2545 11.6259 61.4705 11.6659 61.6145C11.7139 61.7585 11.8019 61.8545 11.9299 61.9025C12.0579 61.9505 12.2499 61.9825 12.5059 61.9985V62.2385C12.3059 62.2225 12.0419 62.2145 11.7139 62.2145C11.3939 62.2065 11.0499 62.2025 10.6819 62.2025C10.3379 62.2025 9.98992 62.2065 9.63792 62.2145C9.29392 62.2145 9.01392 62.2225 8.79792 62.2385ZM3.70992 62.2385V61.9985C3.96592 61.9825 4.15792 61.9505 4.28592 61.9025C4.41392 61.8545 4.49792 61.7585 4.53792 61.6145C4.58592 61.4705 4.60992 61.2545 4.60992 60.9665V55.0145C4.60992 54.7185 4.58592 54.5025 4.53792 54.3665C4.49792 54.2225 4.40992 54.1265 4.27392 54.0785C4.14592 54.0225 3.95792 53.9905 3.70992 53.9825V53.7425C3.91792 53.7505 4.18592 53.7585 4.51392 53.7665C4.84992 53.7745 5.21392 53.7785 5.60592 53.7785C5.94192 53.7785 6.27392 53.7745 6.60192 53.7665C6.92992 53.7585 7.20192 53.7505 7.41792 53.7425V53.9825C7.16192 53.9905 6.96592 54.0225 6.82992 54.0785C6.70192 54.1265 6.61792 54.2225 6.57792 54.3665C6.53792 54.5025 6.51792 54.7185 6.51792 55.0145V60.9665C6.51792 61.2545 6.53792 61.4705 6.57792 61.6145C6.62592 61.7585 6.71392 61.8545 6.84192 61.9025C6.96992 61.9505 7.16192 61.9825 7.41792 61.9985V62.2385C7.20192 62.2225 6.92992 62.2145 6.60192 62.2145C6.27392 62.2065 5.94192 62.2025 5.60592 62.2025C5.21392 62.2025 4.84992 62.2065 4.51392 62.2145C4.18592 62.2145 3.91792 62.2225 3.70992 62.2385ZM5.73792 58.0865V57.8465H10.4779V58.0865H5.73792ZM16.0609 55.8665C16.6449 55.8665 17.1569 55.9745 17.5969 56.1905C18.0369 56.4065 18.3809 56.7545 18.6289 57.2345C18.8769 57.7145 19.0009 58.3505 19.0009 59.1425C19.0009 59.9345 18.8769 60.5705 18.6289 61.0505C18.3809 61.5225 18.0369 61.8665 17.5969 62.0825C17.1569 62.2985 16.6449 62.4065 16.0609 62.4065C15.4929 62.4065 14.9849 62.2985 14.5369 62.0825C14.0969 61.8665 13.7489 61.5225 13.4929 61.0505C13.2449 60.5705 13.1209 59.9345 13.1209 59.1425C13.1209 58.3505 13.2449 57.7145 13.4929 57.2345C13.7489 56.7545 14.0969 56.4065 14.5369 56.1905C14.9849 55.9745 15.4929 55.8665 16.0609 55.8665ZM16.0609 56.1065C15.7409 56.1065 15.4729 56.3465 15.2569 56.8265C15.0409 57.2985 14.9329 58.0705 14.9329 59.1425C14.9329 60.2145 15.0409 60.9865 15.2569 61.4585C15.4729 61.9305 15.7409 62.1665 16.0609 62.1665C16.3889 62.1665 16.6569 61.9305 16.8649 61.4585C17.0809 60.9865 17.1889 60.2145 17.1889 59.1425C17.1889 58.0705 17.0809 57.2985 16.8649 56.8265C16.6569 56.3465 16.3889 56.1065 16.0609 56.1065ZM24.2141 55.8665C24.5501 55.8665 24.8221 55.9105 25.0301 55.9985C25.2461 56.0785 25.4141 56.1905 25.5341 56.3345C25.6621 56.4865 25.7541 56.6825 25.8101 56.9225C25.8741 57.1625 25.9061 57.4865 25.9061 57.8945V61.1225C25.9061 61.4585 25.9621 61.6865 26.0741 61.8065C26.1941 61.9265 26.3941 61.9865 26.6741 61.9865V62.2385C26.5221 62.2305 26.2941 62.2225 25.9901 62.2145C25.6861 62.1985 25.3861 62.1905 25.0901 62.1905C24.7861 62.1905 24.4861 62.1985 24.1901 62.2145C23.9021 62.2225 23.6821 62.2305 23.5301 62.2385V61.9865C23.7701 61.9865 23.9381 61.9265 24.0341 61.8065C24.1301 61.6865 24.1781 61.4585 24.1781 61.1225V57.3905C24.1781 57.1905 24.1581 57.0185 24.1181 56.8745C24.0781 56.7225 24.0061 56.6065 23.9021 56.5265C23.7981 56.4385 23.6421 56.3945 23.4341 56.3945C23.2181 56.3945 23.0181 56.4545 22.8341 56.5745C22.6581 56.6945 22.5141 56.8625 22.4021 57.0785C22.2981 57.2865 22.2461 57.5225 22.2461 57.7865V61.1225C22.2461 61.4585 22.2941 61.6865 22.3901 61.8065C22.4941 61.9265 22.6621 61.9865 22.8941 61.9865V62.2385C22.7501 62.2305 22.5381 62.2225 22.2581 62.2145C21.9861 62.1985 21.7021 62.1905 21.4061 62.1905C21.1021 62.1905 20.7901 62.1985 20.4701 62.2145C20.1501 62.2225 19.9101 62.2305 19.7501 62.2385V61.9865C20.0301 61.9865 20.2261 61.9265 20.3381 61.8065C20.4581 61.6865 20.5181 61.4585 20.5181 61.1225V57.3425C20.5181 56.9825 20.4621 56.7185 20.3501 56.5505C20.2461 56.3745 20.0461 56.2865 19.7501 56.2865V56.0345C20.0061 56.0585 20.2541 56.0705 20.4941 56.0705C20.8301 56.0705 21.1421 56.0585 21.4301 56.0345C21.7261 56.0025 21.9981 55.9585 22.2461 55.9025V56.9825C22.4461 56.5745 22.7181 56.2865 23.0621 56.1185C23.4061 55.9505 23.7901 55.8665 24.2141 55.8665ZM30.2172 55.8665C30.9212 55.8665 31.4732 56.0745 31.8732 56.4905C32.2732 56.9065 32.4732 57.5865 32.4732 58.5305H28.5252L28.5012 58.3025H30.9612C30.9692 57.9105 30.9452 57.5505 30.8892 57.2225C30.8332 56.8865 30.7452 56.6185 30.6252 56.4185C30.5052 56.2185 30.3452 56.1185 30.1452 56.1185C29.8652 56.1185 29.6252 56.2945 29.4252 56.6465C29.2332 56.9985 29.1172 57.5825 29.0772 58.3985L29.1132 58.4705C29.1052 58.5665 29.0972 58.6665 29.0892 58.7705C29.0892 58.8745 29.0892 58.9825 29.0892 59.0945C29.0892 59.6465 29.1652 60.0945 29.3172 60.4385C29.4772 60.7825 29.6772 61.0345 29.9172 61.1945C30.1572 61.3465 30.4012 61.4225 30.6492 61.4225C30.8172 61.4225 30.9892 61.3985 31.1652 61.3505C31.3492 61.2945 31.5332 61.1985 31.7172 61.0625C31.9012 60.9185 32.0732 60.7185 32.2332 60.4625L32.4492 60.5345C32.3532 60.8385 32.2012 61.1345 31.9932 61.4225C31.7852 61.7105 31.5212 61.9465 31.2012 62.1305C30.8812 62.3145 30.4972 62.4065 30.0492 62.4065C29.5052 62.4065 29.0252 62.2905 28.6092 62.0585C28.1932 61.8265 27.8652 61.4745 27.6252 61.0025C27.3932 60.5305 27.2772 59.9305 27.2772 59.2025C27.2772 58.4585 27.4012 57.8385 27.6492 57.3425C27.9052 56.8465 28.2532 56.4785 28.6932 56.2385C29.1412 55.9905 29.6492 55.8665 30.2172 55.8665ZM38.6314 56.0345V56.2745C38.4794 56.3145 38.3354 56.4105 38.1994 56.5625C38.0634 56.7065 37.9314 56.9545 37.8034 57.3065L36.1114 62.0585L35.6674 62.8985L33.0514 56.9585C32.9154 56.6465 32.7794 56.4585 32.6434 56.3945C32.5154 56.3225 32.4034 56.2865 32.3074 56.2865V56.0345C32.5714 56.0585 32.8434 56.0785 33.1234 56.0945C33.4114 56.1025 33.6874 56.1065 33.9514 56.1065C34.2794 56.1065 34.5794 56.0985 34.8514 56.0825C35.1234 56.0665 35.3794 56.0505 35.6194 56.0345V56.2865C35.4594 56.2865 35.3074 56.2985 35.1634 56.3225C35.0274 56.3385 34.9314 56.3945 34.8754 56.4905C34.8274 56.5785 34.8514 56.7345 34.9474 56.9585L36.4594 60.6065L36.3514 60.6785L37.2394 58.1945C37.3914 57.7625 37.4554 57.4105 37.4314 57.1385C37.4074 56.8585 37.3194 56.6505 37.1674 56.5145C37.0154 56.3705 36.8074 56.2905 36.5434 56.2745V56.0345C36.6714 56.0425 36.8034 56.0505 36.9394 56.0585C37.0754 56.0585 37.2114 56.0625 37.3474 56.0705C37.4834 56.0705 37.6034 56.0705 37.7074 56.0705C37.8674 56.0705 38.0354 56.0665 38.2114 56.0585C38.3874 56.0505 38.5274 56.0425 38.6314 56.0345ZM36.1114 62.0585L35.6554 63.3425C35.5754 63.5425 35.4914 63.7105 35.4034 63.8465C35.3234 63.9905 35.2314 64.1065 35.1274 64.1945C35.0154 64.2905 34.8714 64.3625 34.6954 64.4105C34.5194 64.4665 34.3154 64.4945 34.0834 64.4945C33.8914 64.4945 33.6914 64.4625 33.4834 64.3985C33.2834 64.3345 33.1154 64.2305 32.9794 64.0865C32.8434 63.9425 32.7754 63.7585 32.7754 63.5345C32.7754 63.2865 32.8634 63.0865 33.0394 62.9345C33.2154 62.7905 33.4474 62.7185 33.7354 62.7185C33.9994 62.7185 34.2154 62.7825 34.3834 62.9105C34.5514 63.0385 34.6354 63.2265 34.6354 63.4745C34.6354 63.6345 34.5834 63.7865 34.4794 63.9305C34.3834 64.0745 34.2354 64.1825 34.0354 64.2545C34.0754 64.2625 34.1234 64.2665 34.1794 64.2665C34.2354 64.2665 34.2794 64.2665 34.3114 64.2665C34.5514 64.2665 34.7634 64.1905 34.9474 64.0385C35.1314 63.8865 35.2834 63.6465 35.4034 63.3185L35.8234 62.0825L36.1114 62.0585Z" fill="black"/>
</svg>
