<svg width="160" height="160" viewBox="0 0 160 160" fill="none" xmlns="http://www.w3.org/2000/svg">
<path d="M22.4114 33.9854C22.2404 33.6811 22.2404 33.3096 22.4114 33.0053L37.5945 5.99741C37.7715 5.68241 38.1048 5.48745 38.4662 5.48745L68.7408 5.48745C69.1022 5.48745 69.4354 5.68241 69.6125 5.99741L84.7955 33.0053C84.9666 33.3096 84.9666 33.6811 84.7955 33.9854L69.6125 60.9933C69.4354 61.3083 69.1022 61.5033 68.7408 61.5033L38.4662 61.5033C38.1048 61.5033 37.7715 61.3083 37.5945 60.9933L22.4114 33.9854Z" stroke="#654501" stroke-width="2"/>
<path d="M22.4114 89.0042C22.2404 88.6999 22.2404 88.3284 22.4114 88.0241L37.5945 61.0162C37.7715 60.7012 38.1048 60.5062 38.4662 60.5062L68.7408 60.5062C69.1022 60.5062 69.4354 60.7012 69.6125 61.0162L84.7955 88.0241C84.9666 88.3284 84.9666 88.6999 84.7955 89.0042L69.6125 116.012C69.4354 116.327 69.1022 116.522 68.7408 116.522H38.4662C38.1048 116.522 37.7715 116.327 37.5945 116.012L22.4114 89.0042Z" stroke="#654501" stroke-width="2"/>
<path d="M70.0963 61.3852C69.9252 61.0809 69.9252 60.7094 70.0963 60.4051L85.2793 33.3972C85.4564 33.0822 85.7896 32.8872 86.151 32.8872L116.426 32.8872C116.787 32.8872 117.12 33.0822 117.297 33.3972L132.48 60.4051C132.651 60.7094 132.651 61.0809 132.48 61.3852L117.297 88.3931C117.12 88.7081 116.787 88.9031 116.426 88.9031H86.151C85.7896 88.9031 85.4564 88.7081 85.2793 88.3931L70.0963 61.3852Z" stroke="#654501" stroke-width="2"/>
<path d="M68.8713 79.136C67.82 75.9205 65.7173 73.7768 62.5633 72.4369V68.4175H59.935V72.169H58.8837C55.9925 72.169 53.627 73.2408 51.5243 75.3845L50.473 76.4564L46.7933 75.1166C46.0048 74.8486 45.2163 74.5806 44.165 74.5806C42.588 74.5806 41.011 75.1166 39.6968 76.1884C38.1198 77.2603 37.3313 78.6001 36.8056 79.9399C36.28 81.8157 36.28 83.4235 36.8056 85.2992C37.5941 87.1749 38.3826 88.5148 39.6968 89.3187C38.6455 93.3381 39.434 96.8216 42.3251 99.7692C44.4278 101.913 46.7933 102.985 49.6845 102.985C50.9986 102.985 51.7871 102.985 52.5756 102.717C54.1527 104.861 56.2553 106.2 58.8837 106.2C59.6722 106.2 60.7235 106.2 61.512 105.932C63.089 105.396 64.1403 104.325 65.1917 102.985C66.243 101.377 66.7687 100.037 66.7687 98.4294C66.7687 97.3576 66.7687 96.5537 66.5058 95.7498L65.1917 91.4624L66.7687 90.3905C68.8713 88.2468 69.9227 85.2992 69.6598 82.0836H73.0767V79.136H68.8713ZM43.3765 85.2992C41.7995 84.4953 41.2738 83.4235 41.7995 81.8157C42.3251 80.2079 43.3765 79.672 44.9535 80.2079L53.3642 83.4235C49.1588 85.5672 46.0048 86.1031 43.3765 85.2992ZM59.935 100.305C58.358 100.841 57.3067 100.305 56.5182 98.6974C55.7297 96.0177 56.2553 92.8022 58.358 88.5148L61.512 96.8216C62.0377 98.6974 61.512 99.7692 59.935 100.305ZM63.089 86.1031L61.512 81.8157V81.5477L60.7235 80.7438H60.4607L56.2553 79.136C57.3067 78.3321 58.358 77.7962 59.6722 77.7962C60.9863 77.7962 62.3005 78.3321 63.3518 79.404C64.4032 80.4759 64.9288 81.5477 64.9288 82.8875C64.4032 83.6914 63.8775 85.0312 63.089 86.1031Z" fill="#654501"/>
<path d="M19.6789 130.338V130.818C19.1669 130.882 18.7829 131.018 18.5269 131.226C18.2709 131.418 18.0949 131.73 17.9989 132.162C17.9189 132.594 17.8789 133.202 17.8789 133.986V147.378C17.6869 147.362 17.4869 147.354 17.2789 147.354C17.0869 147.354 16.8789 147.362 16.6549 147.378L6.23891 134.178V143.394C6.23891 144.274 6.28691 144.954 6.38291 145.434C6.47891 145.898 6.68691 146.234 7.00691 146.442C7.34291 146.634 7.86291 146.77 8.56691 146.85V147.33C8.26291 147.298 7.86291 147.282 7.36691 147.282C6.87091 147.266 6.40691 147.258 5.97491 147.258C5.60691 147.258 5.23091 147.266 4.84691 147.282C4.46291 147.282 4.14291 147.298 3.88691 147.33V146.85C4.39891 146.77 4.78291 146.634 5.03891 146.442C5.29491 146.25 5.46291 145.938 5.54291 145.506C5.63891 145.058 5.68691 144.45 5.68691 143.682V132.882C5.68691 132.29 5.63891 131.858 5.54291 131.586C5.46291 131.298 5.28691 131.106 5.01491 131.01C4.75891 130.898 4.38291 130.834 3.88691 130.818V130.338C4.14291 130.354 4.46291 130.37 4.84691 130.386C5.23091 130.402 5.60691 130.41 5.97491 130.41C6.35891 130.41 6.72691 130.402 7.07891 130.386C7.43091 130.37 7.75091 130.354 8.03891 130.338L17.3269 141.786V134.274C17.3269 133.394 17.2789 132.722 17.1829 132.258C17.0869 131.778 16.8709 131.434 16.5349 131.226C16.2149 131.018 15.7029 130.882 14.9989 130.818V130.338C15.3029 130.354 15.7029 130.37 16.1989 130.386C16.6949 130.402 17.1589 130.41 17.5909 130.41C17.9749 130.41 18.3509 130.402 18.7189 130.386C19.1029 130.37 19.4229 130.354 19.6789 130.338ZM23.235 147.498C22.515 147.498 21.915 147.362 21.435 147.09C20.955 146.818 20.603 146.458 20.379 146.01C20.155 145.546 20.043 145.042 20.043 144.498C20.043 143.81 20.195 143.25 20.499 142.818C20.819 142.386 21.227 142.034 21.723 141.762C22.219 141.49 22.739 141.266 23.283 141.09C23.843 140.914 24.371 140.746 24.867 140.586C25.379 140.41 25.787 140.21 26.091 139.986C26.411 139.746 26.571 139.442 26.571 139.074V137.202C26.571 136.786 26.499 136.418 26.355 136.098C26.227 135.762 26.019 135.506 25.731 135.33C25.459 135.154 25.099 135.066 24.651 135.066C24.331 135.066 24.011 135.114 23.691 135.21C23.371 135.29 23.107 135.434 22.899 135.642C23.347 135.802 23.691 136.05 23.931 136.386C24.187 136.706 24.315 137.074 24.315 137.49C24.315 138.034 24.123 138.466 23.739 138.786C23.371 139.106 22.931 139.266 22.419 139.266C21.843 139.266 21.403 139.09 21.099 138.738C20.811 138.37 20.667 137.93 20.667 137.418C20.667 136.954 20.779 136.57 21.003 136.266C21.243 135.962 21.571 135.674 21.987 135.402C22.435 135.146 22.971 134.946 23.595 134.802C24.235 134.658 24.923 134.586 25.659 134.586C26.395 134.586 27.059 134.666 27.651 134.826C28.243 134.97 28.739 135.242 29.139 135.642C29.507 136.01 29.747 136.466 29.859 137.01C29.971 137.538 30.027 138.21 30.027 139.026V145.554C30.027 145.954 30.067 146.234 30.147 146.394C30.227 146.538 30.363 146.61 30.555 146.61C30.699 146.61 30.835 146.57 30.963 146.49C31.107 146.41 31.259 146.314 31.419 146.202L31.659 146.61C31.323 146.898 30.931 147.122 30.483 147.282C30.051 147.426 29.563 147.498 29.019 147.498C28.427 147.498 27.955 147.418 27.603 147.258C27.251 147.082 26.995 146.85 26.835 146.562C26.691 146.274 26.619 145.938 26.619 145.554C26.235 146.162 25.771 146.642 25.227 146.994C24.683 147.33 24.019 147.498 23.235 147.498ZM24.939 145.962C25.259 145.962 25.547 145.89 25.803 145.746C26.075 145.586 26.331 145.33 26.571 144.978V140.058C26.427 140.298 26.227 140.514 25.971 140.706C25.715 140.898 25.443 141.098 25.155 141.306C24.867 141.498 24.587 141.714 24.315 141.954C24.059 142.194 23.851 142.49 23.691 142.842C23.531 143.194 23.451 143.618 23.451 144.114C23.451 144.738 23.587 145.202 23.859 145.506C24.131 145.81 24.491 145.962 24.939 145.962ZM36.6889 130.986V134.922H39.5209V135.402H36.6889V145.098C36.6889 145.578 36.7769 145.922 36.9529 146.13C37.1289 146.322 37.3929 146.418 37.7449 146.418C38.0329 146.418 38.3209 146.314 38.6089 146.106C38.8969 145.882 39.1529 145.506 39.3769 144.978L39.7849 145.194C39.5289 145.914 39.1369 146.506 38.6089 146.97C38.0969 147.434 37.3929 147.666 36.4969 147.666C35.9689 147.666 35.5049 147.594 35.1049 147.45C34.7049 147.322 34.3689 147.122 34.0969 146.85C33.7449 146.498 33.5129 146.066 33.4009 145.554C33.2889 145.026 33.2329 144.346 33.2329 143.514V135.402H31.2169V134.922H33.2329V131.754C33.9049 131.754 34.5209 131.698 35.0809 131.586C35.6569 131.458 36.1929 131.258 36.6889 130.986ZM51.6784 134.658V144.714C51.6784 145.434 51.7904 145.97 52.0144 146.322C52.2384 146.658 52.6384 146.826 53.2144 146.826V147.33C52.7184 147.282 52.2224 147.258 51.7264 147.258C51.0544 147.258 50.4304 147.282 49.8544 147.33C49.2784 147.378 48.7344 147.466 48.2224 147.594V145.434C47.8384 146.234 47.3024 146.81 46.6144 147.162C45.9424 147.498 45.1904 147.666 44.3584 147.666C43.6864 147.666 43.1424 147.578 42.7264 147.402C42.3104 147.226 41.9824 147.002 41.7424 146.73C41.4704 146.426 41.2784 146.026 41.1664 145.53C41.0544 145.034 40.9984 144.394 40.9984 143.61V137.538C40.9984 136.818 40.8864 136.29 40.6624 135.954C40.4544 135.602 40.0544 135.426 39.4624 135.426V134.922C39.9744 134.97 40.4704 134.994 40.9504 134.994C41.6224 134.994 42.2464 134.97 42.8224 134.922C43.4144 134.858 43.9584 134.77 44.4544 134.658V144.594C44.4544 144.994 44.4864 145.346 44.5504 145.65C44.6304 145.954 44.7744 146.194 44.9824 146.37C45.1904 146.53 45.4944 146.61 45.8944 146.61C46.3264 146.61 46.7104 146.49 47.0464 146.25C47.3984 146.01 47.6784 145.682 47.8864 145.266C48.1104 144.834 48.2224 144.354 48.2224 143.826V137.538C48.2224 136.818 48.1104 136.29 47.8864 135.954C47.6784 135.602 47.2784 135.426 46.6864 135.426V134.922C47.1984 134.97 47.6944 134.994 48.1744 134.994C48.8464 134.994 49.4704 134.97 50.0464 134.922C50.6384 134.858 51.1824 134.77 51.6784 134.658ZM62.0091 134.586C62.5211 134.586 62.9371 134.698 63.2571 134.922C63.5771 135.13 63.8091 135.402 63.9531 135.738C64.1131 136.074 64.1931 136.426 64.1931 136.794C64.1931 137.386 64.0171 137.874 63.6651 138.258C63.3291 138.626 62.8811 138.81 62.3211 138.81C61.7611 138.81 61.3211 138.674 61.0011 138.402C60.6971 138.114 60.5451 137.738 60.5451 137.274C60.5451 136.826 60.6411 136.458 60.8331 136.17C61.0411 135.866 61.2971 135.61 61.6011 135.402C61.3771 135.338 61.1531 135.346 60.9291 135.426C60.6251 135.474 60.3371 135.602 60.0651 135.81C59.7931 136.002 59.5611 136.25 59.3691 136.554C59.1771 136.842 59.0251 137.162 58.9131 137.514C58.8011 137.85 58.7451 138.178 58.7451 138.498V144.858C58.7451 145.626 58.9291 146.146 59.2971 146.418C59.6811 146.69 60.2491 146.826 61.0011 146.826V147.33C60.6331 147.314 60.0971 147.298 59.3931 147.282C58.6891 147.25 57.9531 147.234 57.1851 147.234C56.5451 147.234 55.8971 147.25 55.2411 147.282C54.5851 147.298 54.0891 147.314 53.7531 147.33V146.826C54.3131 146.826 54.7051 146.706 54.9291 146.466C55.1691 146.226 55.2891 145.77 55.2891 145.098V137.538C55.2891 136.818 55.1771 136.29 54.9531 135.954C54.7451 135.602 54.3451 135.426 53.7531 135.426V134.922C54.2651 134.97 54.7611 134.994 55.2411 134.994C55.9131 134.994 56.5371 134.97 57.1131 134.922C57.7051 134.858 58.2491 134.77 58.7451 134.658V136.89C58.9371 136.458 59.1931 136.066 59.5131 135.714C59.8331 135.362 60.2011 135.09 60.6171 134.898C61.0331 134.69 61.4971 134.586 62.0091 134.586ZM67.7402 147.498C67.0202 147.498 66.4202 147.362 65.9402 147.09C65.4602 146.818 65.1082 146.458 64.8842 146.01C64.6602 145.546 64.5482 145.042 64.5482 144.498C64.5482 143.81 64.7002 143.25 65.0042 142.818C65.3242 142.386 65.7322 142.034 66.2282 141.762C66.7242 141.49 67.2442 141.266 67.7882 141.09C68.3482 140.914 68.8762 140.746 69.3722 140.586C69.8842 140.41 70.2922 140.21 70.5962 139.986C70.9162 139.746 71.0762 139.442 71.0762 139.074V137.202C71.0762 136.786 71.0042 136.418 70.8602 136.098C70.7322 135.762 70.5242 135.506 70.2362 135.33C69.9642 135.154 69.6042 135.066 69.1562 135.066C68.8362 135.066 68.5162 135.114 68.1962 135.21C67.8762 135.29 67.6122 135.434 67.4042 135.642C67.8522 135.802 68.1962 136.05 68.4362 136.386C68.6922 136.706 68.8202 137.074 68.8202 137.49C68.8202 138.034 68.6282 138.466 68.2442 138.786C67.8762 139.106 67.4362 139.266 66.9242 139.266C66.3482 139.266 65.9082 139.09 65.6042 138.738C65.3162 138.37 65.1722 137.93 65.1722 137.418C65.1722 136.954 65.2842 136.57 65.5082 136.266C65.7482 135.962 66.0762 135.674 66.4922 135.402C66.9402 135.146 67.4762 134.946 68.1002 134.802C68.7402 134.658 69.4282 134.586 70.1642 134.586C70.9002 134.586 71.5642 134.666 72.1562 134.826C72.7482 134.97 73.2442 135.242 73.6442 135.642C74.0122 136.01 74.2522 136.466 74.3642 137.01C74.4762 137.538 74.5322 138.21 74.5322 139.026V145.554C74.5322 145.954 74.5722 146.234 74.6522 146.394C74.7322 146.538 74.8682 146.61 75.0602 146.61C75.2042 146.61 75.3402 146.57 75.4682 146.49C75.6122 146.41 75.7642 146.314 75.9242 146.202L76.1642 146.61C75.8282 146.898 75.4362 147.122 74.9882 147.282C74.5562 147.426 74.0682 147.498 73.5242 147.498C72.9322 147.498 72.4602 147.418 72.1082 147.258C71.7562 147.082 71.5002 146.85 71.3402 146.562C71.1962 146.274 71.1242 145.938 71.1242 145.554C70.7402 146.162 70.2762 146.642 69.7322 146.994C69.1882 147.33 68.5242 147.498 67.7402 147.498ZM69.4442 145.962C69.7642 145.962 70.0522 145.89 70.3082 145.746C70.5802 145.586 70.8362 145.33 71.0762 144.978V140.058C70.9322 140.298 70.7322 140.514 70.4762 140.706C70.2202 140.898 69.9482 141.098 69.6602 141.306C69.3722 141.498 69.0922 141.714 68.8202 141.954C68.5642 142.194 68.3562 142.49 68.1962 142.842C68.0362 143.194 67.9562 143.618 67.9562 144.114C67.9562 144.738 68.0922 145.202 68.3642 145.506C68.6362 145.81 68.9962 145.962 69.4442 145.962ZM81.2181 128.538V145.098C81.2181 145.77 81.3301 146.226 81.5541 146.466C81.7941 146.706 82.1941 146.826 82.7541 146.826V147.33C82.4501 147.314 81.9941 147.298 81.3861 147.282C80.7781 147.25 80.1621 147.234 79.5381 147.234C78.9141 147.234 78.2821 147.25 77.6421 147.282C77.0181 147.298 76.5461 147.314 76.2261 147.33V146.826C76.7861 146.826 77.1781 146.706 77.4021 146.466C77.6421 146.226 77.7621 145.77 77.7621 145.098V131.418C77.7621 130.698 77.6501 130.17 77.4261 129.834C77.2181 129.482 76.8181 129.306 76.2261 129.306V128.802C76.7381 128.85 77.2341 128.874 77.7141 128.874C78.3701 128.874 78.9941 128.85 79.5861 128.802C80.1781 128.738 80.7221 128.65 81.2181 128.538ZM98.7368 147.33V146.85C99.2488 146.818 99.6328 146.754 99.8888 146.658C100.145 146.562 100.313 146.37 100.393 146.082C100.489 145.794 100.537 145.362 100.537 144.786V132.882C100.537 132.29 100.489 131.858 100.393 131.586C100.313 131.298 100.137 131.106 99.8648 131.01C99.6088 130.898 99.2328 130.834 98.7368 130.818V130.338C99.1688 130.354 99.7288 130.37 100.417 130.386C101.121 130.402 101.817 130.41 102.505 130.41C103.241 130.41 103.929 130.402 104.569 130.386C105.225 130.37 105.753 130.354 106.153 130.338V130.818C105.641 130.834 105.249 130.898 104.977 131.01C104.721 131.106 104.553 131.298 104.473 131.586C104.393 131.858 104.353 132.29 104.353 132.882V144.786C104.353 145.362 104.393 145.794 104.473 146.082C104.569 146.37 104.745 146.562 105.001 146.658C105.257 146.754 105.641 146.818 106.153 146.85V147.33C105.753 147.298 105.225 147.282 104.569 147.282C103.929 147.266 103.241 147.258 102.505 147.258C101.817 147.258 101.121 147.266 100.417 147.282C99.7288 147.282 99.1688 147.298 98.7368 147.33ZM88.5608 147.33V146.85C89.0728 146.818 89.4568 146.754 89.7128 146.658C89.9688 146.562 90.1368 146.37 90.2168 146.082C90.3128 145.794 90.3608 145.362 90.3608 144.786V132.882C90.3608 132.29 90.3128 131.858 90.2168 131.586C90.1368 131.298 89.9608 131.106 89.6888 131.01C89.4328 130.898 89.0568 130.834 88.5608 130.818V130.338C88.9768 130.354 89.5128 130.37 90.1688 130.386C90.8408 130.402 91.5688 130.41 92.3528 130.41C93.0248 130.41 93.6888 130.402 94.3448 130.386C95.0008 130.37 95.5448 130.354 95.9768 130.338V130.818C95.4648 130.834 95.0728 130.898 94.8008 131.01C94.5448 131.106 94.3768 131.298 94.2968 131.586C94.2168 131.858 94.1768 132.29 94.1768 132.882V144.786C94.1768 145.362 94.2168 145.794 94.2968 146.082C94.3928 146.37 94.5688 146.562 94.8248 146.658C95.0808 146.754 95.4648 146.818 95.9768 146.85V147.33C95.5448 147.298 95.0008 147.282 94.3448 147.282C93.6888 147.266 93.0248 147.258 92.3528 147.258C91.5688 147.258 90.8408 147.266 90.1688 147.282C89.5128 147.282 88.9768 147.298 88.5608 147.33ZM92.6168 139.026V138.546H102.097V139.026H92.6168ZM112.735 134.586C113.903 134.586 114.927 134.802 115.807 135.234C116.687 135.666 117.375 136.362 117.871 137.322C118.367 138.282 118.615 139.554 118.615 141.138C118.615 142.722 118.367 143.994 117.871 144.954C117.375 145.898 116.687 146.586 115.807 147.018C114.927 147.45 113.903 147.666 112.735 147.666C111.599 147.666 110.583 147.45 109.687 147.018C108.807 146.586 108.111 145.898 107.599 144.954C107.103 143.994 106.855 142.722 106.855 141.138C106.855 139.554 107.103 138.282 107.599 137.322C108.111 136.362 108.807 135.666 109.687 135.234C110.583 134.802 111.599 134.586 112.735 134.586ZM112.735 135.066C112.095 135.066 111.559 135.546 111.127 136.506C110.695 137.45 110.479 138.994 110.479 141.138C110.479 143.282 110.695 144.826 111.127 145.77C111.559 146.714 112.095 147.186 112.735 147.186C113.391 147.186 113.927 146.714 114.343 145.77C114.775 144.826 114.991 143.282 114.991 141.138C114.991 138.994 114.775 137.45 114.343 136.506C113.927 135.546 113.391 135.066 112.735 135.066ZM128.513 134.586C129.185 134.586 129.729 134.674 130.145 134.85C130.577 135.01 130.913 135.234 131.153 135.522C131.409 135.826 131.593 136.218 131.705 136.698C131.833 137.178 131.897 137.826 131.897 138.642V145.098C131.897 145.77 132.009 146.226 132.233 146.466C132.473 146.706 132.873 146.826 133.433 146.826V147.33C133.129 147.314 132.673 147.298 132.065 147.282C131.457 147.25 130.857 147.234 130.265 147.234C129.657 147.234 129.057 147.25 128.465 147.282C127.889 147.298 127.449 147.314 127.145 147.33V146.826C127.625 146.826 127.961 146.706 128.153 146.466C128.345 146.226 128.441 145.77 128.441 145.098V137.634C128.441 137.234 128.401 136.89 128.321 136.602C128.241 136.298 128.097 136.066 127.889 135.906C127.681 135.73 127.369 135.642 126.953 135.642C126.521 135.642 126.121 135.762 125.753 136.002C125.401 136.242 125.113 136.578 124.889 137.01C124.681 137.426 124.577 137.898 124.577 138.426V145.098C124.577 145.77 124.673 146.226 124.865 146.466C125.073 146.706 125.409 146.826 125.873 146.826V147.33C125.585 147.314 125.161 147.298 124.601 147.282C124.057 147.25 123.489 147.234 122.897 147.234C122.289 147.234 121.665 147.25 121.025 147.282C120.385 147.298 119.905 147.314 119.585 147.33V146.826C120.145 146.826 120.537 146.706 120.761 146.466C121.001 146.226 121.121 145.77 121.121 145.098V137.538C121.121 136.818 121.009 136.29 120.785 135.954C120.577 135.602 120.177 135.426 119.585 135.426V134.922C120.097 134.97 120.593 134.994 121.073 134.994C121.745 134.994 122.369 134.97 122.945 134.922C123.537 134.858 124.081 134.77 124.577 134.658V136.818C124.977 136.002 125.521 135.426 126.209 135.09C126.897 134.754 127.665 134.586 128.513 134.586ZM139.991 134.586C141.399 134.586 142.503 135.002 143.303 135.834C144.103 136.666 144.503 138.026 144.503 139.914H136.607L136.559 139.458H141.479C141.495 138.674 141.447 137.954 141.335 137.298C141.223 136.626 141.047 136.09 140.807 135.69C140.567 135.29 140.247 135.09 139.847 135.09C139.287 135.09 138.807 135.442 138.407 136.146C138.023 136.85 137.791 138.018 137.711 139.65L137.783 139.794C137.767 139.986 137.751 140.186 137.735 140.394C137.735 140.602 137.735 140.818 137.735 141.042C137.735 142.146 137.887 143.042 138.191 143.73C138.511 144.418 138.911 144.922 139.391 145.242C139.871 145.546 140.359 145.698 140.855 145.698C141.191 145.698 141.535 145.65 141.887 145.554C142.255 145.442 142.623 145.25 142.991 144.978C143.359 144.69 143.703 144.29 144.023 143.778L144.455 143.922C144.263 144.53 143.959 145.122 143.543 145.698C143.127 146.274 142.599 146.746 141.959 147.114C141.319 147.482 140.551 147.666 139.655 147.666C138.567 147.666 137.607 147.434 136.775 146.97C135.943 146.506 135.287 145.802 134.807 144.858C134.343 143.914 134.111 142.714 134.111 141.258C134.111 139.77 134.359 138.53 134.855 137.538C135.367 136.546 136.063 135.81 136.943 135.33C137.839 134.834 138.855 134.586 139.991 134.586ZM156.82 134.922V135.402C156.516 135.482 156.228 135.674 155.956 135.978C155.684 136.266 155.42 136.762 155.164 137.466L151.78 146.97L150.892 148.65L145.66 136.77C145.388 136.146 145.116 135.77 144.844 135.642C144.588 135.498 144.364 135.426 144.172 135.426V134.922C144.7 134.97 145.244 135.01 145.804 135.042C146.38 135.058 146.932 135.066 147.46 135.066C148.116 135.066 148.716 135.05 149.26 135.018C149.804 134.986 150.316 134.954 150.796 134.922V135.426C150.476 135.426 150.172 135.45 149.884 135.498C149.612 135.53 149.42 135.642 149.308 135.834C149.212 136.01 149.26 136.322 149.452 136.77L152.476 144.066L152.26 144.21L154.036 139.242C154.34 138.378 154.468 137.674 154.42 137.13C154.372 136.57 154.196 136.154 153.892 135.882C153.588 135.594 153.172 135.434 152.644 135.402V134.922C152.9 134.938 153.164 134.954 153.436 134.97C153.708 134.97 153.98 134.978 154.252 134.994C154.524 134.994 154.764 134.994 154.972 134.994C155.292 134.994 155.628 134.986 155.98 134.97C156.332 134.954 156.612 134.938 156.82 134.922ZM151.78 146.97L150.868 149.538C150.708 149.938 150.54 150.274 150.364 150.546C150.204 150.834 150.02 151.066 149.812 151.242C149.588 151.434 149.3 151.578 148.948 151.674C148.596 151.786 148.188 151.842 147.724 151.842C147.34 151.842 146.94 151.778 146.524 151.65C146.124 151.522 145.788 151.314 145.516 151.026C145.244 150.738 145.108 150.37 145.108 149.922C145.108 149.426 145.284 149.026 145.636 148.722C145.988 148.434 146.452 148.29 147.028 148.29C147.556 148.29 147.988 148.418 148.324 148.674C148.66 148.93 148.828 149.306 148.828 149.802C148.828 150.122 148.724 150.426 148.516 150.714C148.324 151.002 148.028 151.218 147.628 151.362C147.708 151.378 147.804 151.386 147.916 151.386C148.028 151.386 148.116 151.386 148.18 151.386C148.66 151.386 149.084 151.234 149.452 150.93C149.82 150.626 150.124 150.146 150.364 149.49L151.204 147.018L151.78 146.97Z" fill="#654501"/>
</svg>
