<svg width="43" height="46" viewBox="0 0 43 46" fill="none" xmlns="http://www.w3.org/2000/svg">
<path d="M1.4376 13.298C1.26107 12.99 1.26107 12.6115 1.4376 12.3035L6.49576 3.4782C6.67397 3.16726 7.00496 2.97546 7.36336 2.97546H17.4544C17.8128 2.97546 18.1438 3.16726 18.322 3.47821L23.3801 12.3035L24.2477 11.8063L23.3801 12.3035C23.5567 12.6115 23.5567 12.99 23.3801 13.298L18.322 22.1234L19.1896 22.6206L18.322 22.1234C18.1438 22.4343 17.8128 22.6261 17.4544 22.6261H7.36336C7.00496 22.6261 6.67397 22.4343 6.49576 22.1234L1.4376 13.298Z" stroke="#FEF0CF" stroke-width="2"/>
<path d="M1.4376 33.8303C1.26107 33.5223 1.26107 33.1438 1.4376 32.8357L6.49576 24.0104C6.67397 23.6995 7.00496 23.5077 7.36336 23.5077H17.4544C17.8128 23.5077 18.1438 23.6995 18.322 24.0104L23.3801 32.8357L24.2477 32.3385L23.3801 32.8358C23.5567 33.1438 23.5567 33.5223 23.3801 33.8303L18.322 42.6556L19.1896 43.1528L18.322 42.6556C18.1438 42.9665 17.8128 43.1583 17.4544 43.1583H7.36336C7.00496 43.1583 6.67397 42.9665 6.49576 42.6556L1.4376 33.8303Z" stroke="#FEF0CF" stroke-width="2"/>
<path d="M18.8944 23.298C18.7179 22.99 18.7179 22.6115 18.8944 22.3035L23.9525 13.4782C24.1308 13.1673 24.4617 12.9755 24.8201 12.9755H34.9112C35.2696 12.9755 35.6006 13.1673 35.7788 13.4782L40.8369 22.3035L41.7045 21.8063L40.8369 22.3035C41.0135 22.6115 41.0135 22.99 40.8369 23.298L35.7788 32.1234L36.6464 32.6206L35.7788 32.1234C35.6006 32.4343 35.2696 32.6261 34.9112 32.6261H24.8201C24.4618 32.6261 24.1308 32.4343 23.9525 32.1234L18.8944 23.298Z" stroke="#FEF0CF" stroke-width="2"/>
</svg>
