<svg width="59" height="55" viewBox="0 0 59 55" fill="none" xmlns="http://www.w3.org/2000/svg">
<path d="M1.50035 33.2412C1.32382 32.9332 1.32382 32.5546 1.50035 32.2466L6.5585 23.4213C6.73672 23.1104 7.06771 22.9186 7.4261 22.9186H17.5171C17.8755 22.9186 18.2065 23.1104 18.3847 23.4213L23.4429 32.2466L24.3105 31.7494L23.4429 32.2466C23.6194 32.5546 23.6194 32.9331 23.4429 33.2412L18.3847 42.0665L19.2523 42.5637L18.3847 42.0665C18.2065 42.3774 17.8755 42.5692 17.5171 42.5692H7.4261C7.06771 42.5692 6.73672 42.3774 6.5585 42.0665L1.50035 33.2412Z" stroke="#FEF0CF" stroke-width="2"/>
<path d="M18.1617 23.1091C17.9852 22.8011 17.9852 22.4226 18.1617 22.1146L23.2199 13.2892C23.3981 12.9783 23.7291 12.7865 24.0875 12.7865H34.1785C34.5369 12.7865 34.8679 12.9783 35.0461 13.2892L40.1043 22.1146L40.9719 21.6173L40.1043 22.1146C40.2808 22.4226 40.2808 22.8011 40.1043 23.1091L35.0461 31.9344L35.9137 32.4317L35.0461 31.9344C34.8679 32.2453 34.5369 32.4371 34.1785 32.4371H24.0875C23.7291 32.4371 23.3981 32.2453 23.2199 31.9344L18.1617 23.1091Z" stroke="#FEF0CF" stroke-width="2"/>
<path d="M18.6107 42.8771C18.4342 42.5691 18.4342 42.1906 18.6107 41.8826L23.6689 33.0573C23.8471 32.7464 24.1781 32.5546 24.5365 32.5546H34.6275C34.9859 32.5546 35.3169 32.7464 35.4951 33.0573L40.5532 41.8826L41.4208 41.3854L40.5532 41.8826C40.7298 42.1906 40.7298 42.5691 40.5532 42.8771L35.4951 51.7025L36.3627 52.1997L35.4951 51.7025C35.3169 52.0134 34.9859 52.2052 34.6275 52.2052H24.5365C24.1781 52.2052 23.8471 52.0134 23.6689 51.7025L18.6107 42.8771Z" stroke="#FEF0CF" stroke-width="2"/>
<path d="M34.8797 13.0529C34.7032 12.7449 34.7032 12.3664 34.8797 12.0584L39.9379 3.23309C40.1161 2.92214 40.4471 2.73035 40.8055 2.73035H50.8965C51.2549 2.73035 51.5859 2.92214 51.7641 3.23309L56.8223 12.0584L57.6899 11.5611L56.8223 12.0584C56.9988 12.3664 56.9988 12.7449 56.8223 13.0529L51.7641 21.8782L52.6317 22.3755L51.7641 21.8782C51.5859 22.1892 51.2549 22.381 50.8965 22.381H40.8055C40.4471 22.381 40.1161 22.1892 39.9379 21.8782L34.8797 13.0529Z" stroke="#FEF0CF" stroke-width="2"/>
</svg>
