<svg width="122" height="148" viewBox="0 0 122 148" fill="none" xmlns="http://www.w3.org/2000/svg">
<path d="M31.94 61.2C28.42 61.2 25.54 60.48 23.3 59.04C21.06 57.6 19.22 55.76 17.78 53.52C16.18 50.8 15.06 48 14.42 45.12C13.94 42.08 13.7 39.6 13.7 37.68C13.7 29.84 15.7 22.72 19.7 16.32C23.7 9.92 29.94 4.71999 38.42 0.719985L40.58 5.03999C35.62 7.11999 31.3 10.4 27.62 14.88C24.1 19.36 22.34 23.92 22.34 28.56C22.34 30.48 22.58 32.16 23.06 33.6C25.62 31.52 28.58 30.48 31.94 30.48C36.1 30.48 39.7 31.84 42.74 34.56C45.78 37.28 47.3 41.04 47.3 45.84C47.3 50.32 45.78 54 42.74 56.88C39.7 59.76 36.1 61.2 31.94 61.2ZM72.74 61.2C69.22 61.2 66.34 60.48 64.1 59.04C61.86 57.6 60.02 55.76 58.58 53.52C56.98 50.8 55.86 48 55.22 45.12C54.74 42.08 54.5 39.6 54.5 37.68C54.5 29.84 56.5 22.72 60.5 16.32C64.5 9.92 70.74 4.71999 79.22 0.719985L81.38 5.03999C76.42 7.11999 72.1 10.4 68.42 14.88C64.9 19.36 63.14 23.92 63.14 28.56C63.14 30.48 63.38 32.16 63.86 33.6C66.42 31.52 69.38 30.48 72.74 30.48C76.9 30.48 80.5 31.84 83.54 34.56C86.58 37.28 88.1 41.04 88.1 45.84C88.1 50.32 86.58 54 83.54 56.88C80.5 59.76 76.9 61.2 72.74 61.2Z" fill="#FFF7E6"/>
</svg>
